<?xml version="1.0" encoding="utf-8"?>
<!-- Generator: Adobe Illustrator 22.0.1, SVG Export Plug-In . SVG Version: 6.00 Build 0)  -->
<svg version="1.1"
	 id="NexT" xmlns:cc="http://creativecommons.org/ns#" xmlns:dc="http://purl.org/dc/elements/1.1/" xmlns:rdf="http://www.w3.org/1999/02/22-rdf-syntax-ns#" xmlns:svg="http://www.w3.org/2000/svg"
	 xmlns="http://www.w3.org/2000/svg" xmlns:xlink="http://www.w3.org/1999/xlink" x="0px" y="0px" viewBox="0 0 512 512"
	 style="enable-background:new 0 0 512 512;" xml:space="preserve">
<style type="text/css">
	.st0{fill:#FEFEFE;}
	.st1{fill:#F3C131;}
	.st2{fill:#F4CA3C;}
	.st3{fill:#F5C567;}
	.st4{fill:#F4CF3F;}
	.st5{fill:#F4CD3B;}
	.st6{fill:#F4D247;}
	.st7{fill:#F5CF43;}
	.st8{fill:#F7E85D;}
	.st9{fill:#FAF5C4;}
	.st10{fill:#F7E85C;}
	.st11{fill:#F7E35B;}
	.st12{fill:#F6DB4F;}
	.st13{fill:#F5DB4D;}
	.st14{fill:#F9F3AD;}
	.st15{fill:#F7DD5B;}
	.st16{fill:#F7DA5B;}
	.st17{fill:#FAF3BB;}
	.st18{fill:#F7E35E;}
	.st19{fill:#F3C143;}
	.st20{fill:#F4C563;}
	.st21{fill:#F1BA36;}
	.st22{fill:#F4D160;}
	.st23{fill:#F7EE84;}
	.st24{fill:#F7F196;}
	.st25{fill:#F6E789;}
	.st26{fill:#F5D85C;}
	.st27{fill:#F5C967;}
	.st28{fill:#FAEEC9;}
	.st29{fill:#F5CC5B;}
	.st30{fill:#FAF0C7;}
	.st31{fill:#F4CB5D;}
	.st32{fill:#F4C66C;}
	.st33{fill:#F7E7B4;}
	.st34{fill:#F4C86F;}
	.st35{fill:#F9EBC5;}
</style>
<g>
	<g>
		<path class="st0" d="M240.1,512c-69.4,0-138.8-0.6-208.2,0.4c-16.4,0.2-22.3-0.9-22.1-20.6C11,335.6,11,179.5,9.8,23.3
			C9.6,2.1,16.6,0.1,34.5,0.2c150.9,0.7,301.9,1.3,452.8-0.5c26.3-0.3,24.5,10.6,24.4,28.8c-0.5,152.7-1,305.4,0.4,458
			c0.2,23.4-6.4,26.4-27.4,26c-71.1-1.5-142.3-0.6-213.4-0.6c-3.3-14.1,7.5-16.9,16.7-20.9c37.6-7.9,74.7-16.8,103.4-45.1
			c36.8-25.8,66.3-57.4,80.2-101.3c2.9-9.1,4.9-18.3,5.4-27.8c13.4-71.7-0.5-136.9-46.5-194.3C360.6,46.5,278.2,16.3,177.4,54.3
			c-34.3,10.9-62.3,31.1-86.1,57.6c-22.9,30-42.2,61.9-51.7,98.9c-4.9,13.7-5.6,27.9-5.4,42.3c2.2,122.2,60.6,193.7,196.4,240.1
			C237.5,497.5,243.1,502.6,240.1,512z"/>
		<path class="st1" d="M291.7,500c-7.5,2.7-17.6,1.2-20.3,12c-10.4,0-20.9,0-31.3,0c-3.3-4-6.5-8-9.8-12
			C250.7,469.5,271.2,469.6,291.7,500z"/>
		<path class="st2" d="M291.7,500c-20.5-13.7-41-13.8-61.5,0C102.6,483.2,18,382.1,22.5,251.5c11.6-3.9,19,2.4,25.5,10.7
			c14.4,27.8,17.8,60.1,35.1,86.7c47.6,80,132.9,119.2,218.5,100c32.1-0.2,64.3-13.5,96.3,0.8C373.7,490.2,332.2,494.1,291.7,500z"
			/>
		<path class="st3" d="M397.8,449.7c-34.5,11.3-70.1,11-105.7,10.3c-25.7,6.1-50.7,10.2-64.3-20.9c5.6-6.9,13.3-10.3,21.7-12.2
			c42-4.6,85.6,3.4,125.9-15.5c21.7-6.5,37.7-22.1,55.2-35.2c18.3-8.4,23.1-39.4,51.5-31C468,391.5,448.4,433.1,397.8,449.7z"/>
		<path class="st4" d="M167.4,43.5C279.7,5,363.7,26.8,438.9,113.9c4.7,4.6,4.6,9.2-0.3,13.6c-11.2,2.8-21.2-1.3-28.7-8.4
			c-63.4-60.3-138.7-72.6-221.4-55.5C177.9,60.7,166.1,58.9,167.4,43.5z"/>
		<path class="st5" d="M438.3,125.9c0.2-4,0.4-8,0.6-12c58.5,60.2,63.8,133,50.4,210.4c-9.7,15.3-18.5,16.7-26-1.8
			c-0.7-5-0.6-10.1,0-15.1c4.4-31.8,7.2-63.6-3-95C453.6,183.4,430.7,158.5,438.3,125.9z"/>
		<path class="st6" d="M167.4,43.5c4.7,7.8,12.3,9.1,20.5,9.3c3.8,24-24.7,21.5-30.5,37.6c-2.6,3.7-5.6,7.1-8.7,10.4
			c-16.3,12.4-30.9,28.3-53.9,27.7c-9.3-5.4-11-14.5-12-24C105,76,133.9,56.6,167.4,43.5z"/>
		<path class="st2" d="M82.7,104.6c8.5,4.2,10.9,11.7,11.1,20.4C78.9,166.2,64,207.5,37.3,243.1c-16.5-9-11.9-22-6.5-35
			C32.9,165.9,56.2,134.4,82.7,104.6z"/>
		<path class="st7" d="M469.6,324.1c6.4,11.5,13.1,1.5,19.6,0.2c-2.4,7-4.8,14-7.1,21.1c-23.2,4.5-22.3,34.7-43.8,41.2
			c-5.9-5.3-8.8-12-9.4-19.9c-0.1-10.5,3.7-19.5,10.4-27.4C448.2,331.8,454.3,318.7,469.6,324.1z"/>
		<path class="st6" d="M30.8,208.1c1.4,11.3-1.6,23.9,9.5,32.4c6.8,7.1,6.8,14.2-0.1,21.2c-5.9-3.4-11.7-6.8-17.6-10.2
			C20.8,236.2,19.7,221,30.8,208.1z"/>
		<path class="st8" d="M229.7,439c17.9,15.5,39.7,19.7,62.4,21.1c-73.2,25.7-188.2-29.3-219.6-105c-11-47-20.9-94.4-8-142.2
			c12.5-46.3,38.5-84.1,80-110c14-11.7,29.1-21.7,46.7-27.3c11.7-9.7,37,3,38.5-23.6c20.2-7.3,40.6-5.7,61-1.1
			c4.6,20.8,22.1,15.5,36,17.5c15,2.8,25.7,12.6,36.4,22.4c13.5,16.4,35.8,28.8,26.1,56c-15.2,12.4-28.2,2.6-41.5-4.3
			c-14.6-7.5-27.7-20.4-46.5-12.3c-4.7,0.9-9.3,0.8-13.9-0.1c-34.2-15.4-67.9-15.3-100.9,3.1c-13.9,8-24.5,19.8-35.5,31.2
			c-21.3,18.6-28.8,44.9-38.6,69.9c-14.2,34-0.3,62.9,16.3,91.3c-0.2,20.1,12.6,33.2,25.1,46.4C171,403.4,213.2,406.7,229.7,439z"/>
		<path class="st9" d="M156.6,105c-66.2,47.8-90.9,113.6-84.7,193.3c1.5,18.8,0.5,37.8,0.6,56.8c-19.7-28.1-26-60.7-32.4-93.4
			c0-7.1,0.1-14.1,0.1-21.2c4.4-44.7,21.5-83.5,53.5-115.5c17.1-10.4,34.2-20.8,51.2-31.3C155.1,91.1,159,94.9,156.6,105z"/>
		<path class="st10" d="M448.7,344.9c-8.4,4.5-10.1,12.3-10.4,20.9c-13.9,20.9-31.4,38.2-52.1,52.3c-41.4,31.7-89.7,18-135.5,20.5
			c3.8-31.1,31.7-27.2,51-33c30.3-9.1,53.8-23.5,63.1-55.3c40.1-30.6,66.8-67.9,64.5-121.5c-0.6-14.4-2.1-32.6,20.6-34.7
			C489,244.8,469.3,294.9,448.7,344.9z"/>
		<path class="st11" d="M365.3,357.9c13.7,44.1-25.5,45.8-48.6,56.5c-21,9.7-47,7.5-66,24.3c-7,0.1-14,0.2-21,0.3
			c-30.5-17.4-67.4-26.1-83.6-62.6c-7.9-12.7-18.1-24.4-15.5-41c18-26.5,27.8-0.8,38.1,7.3c38.7,30.4,79.4,48.3,128.8,28.7
			c12.3-5.7,26.5-6.7,37.8-15.3c3.8-2.7,8-4.6,12.4-6C355.1,349.3,361.6,350.4,365.3,357.9z"/>
		<path class="st12" d="M386.2,418.2c13.2-21.5,30.8-38.9,52.1-52.3c0,6.9,0,13.8,0,20.7C419.4,394.5,410.3,418.8,386.2,418.2z"/>
		<path class="st13" d="M448.7,344.9c7.2-36.5,13.3-73.1,10.7-110.6c-1.1-15.2,1.9-31.7-19.2-35.8c-34.5-30.2-41.6-83.3-86.9-104.6
			c-9.8-6.8-19.7-13.7-29.5-20.5c-11.4-0.7-22.7-1.9-31.4-10.6c-20.8-15.6-41.8-14.6-63-0.8c-8.6,10.2-22,10.6-32.9,16
			c-16.7,1.9-31.3,17.8-49.7,7.3c3.9-23.3,30.8-17.5,41.2-32.5c99.1-29.2,179.9,4.5,250.4,73.1c14.1,26.4,25.7,53.8,31.5,83.4
			c8.1,34.8,8.2,69.6-0.1,104.3c0,3.5-0.1,6.9-0.1,10.4C462.7,331,455.7,338,448.7,344.9z"/>
		<path class="st7" d="M469.7,313.7c0-34.8,0-69.6,0.1-104.3C486,244.1,486,278.9,469.7,313.7z"/>
		<path class="st14" d="M146.7,85.3c17.2-4.3,34.4-8.5,51.6-12.8c2.6,2.5,3.5,5.1,2.6,7.7c-0.9,2.6-1.7,3.9-2.6,3.9
			c-13.9,7-27.8,14-41.7,21c-3.9-3.8-7.7-7.5-11.6-11.3C145.8,91,146.4,88.2,146.7,85.3z"/>
		<path class="st15" d="M344.7,355c-0.1,3.7-0.3,7.4-0.4,11.1c-13.6,4.3-30.2-3.3-41.6,10.2c-36.6,42.5-74.2,9.3-109.3-1.5
			c-21.4-6.6-38.7-26.3-57.8-40.1c-3.6,4-7.1,3.9-10.5-0.2c-26.7-30.8-46.6-63-21.5-104.4c14.7,14.5,13.6,29.5,3.2,45.5
			c14.9-20.4,1.4-54.4,30-68.7c22.9,4.8,20,24.2,22.2,40.2c2.5,18.2-1.9,37.6,11.1,53.6c14.2,17.6,26.5,37.6,51.8,41.2
			c6.9,0.7,13.8,1.5,20.6,2.6c17.1,9.2,29.6-2.7,43.2-9.7c52.5-9.4,84.1-37.8,87.6-93.4c0.8-13.2,1-28.6,18-34.1
			c29,20.8,16.6,50.8,17.5,77.9C403.8,323.3,378.1,342.7,344.7,355z"/>
		<path class="st16" d="M167,313.7c-23.6-10.6-20.1-31.8-21.1-51.9c-1-17.7,6.5-37.4-9.6-52.4c-7.2-17,6.1-27.5,12.6-40.2
			c8-10.3,16.8-19.8,28.2-26.5c35.7-24.5,73.2-36.4,115.3-16.8c3.4,0,6.9-0.1,10.3-0.1c38.7-2,63.2,17.8,78.5,51.5
			c-4.7,19.4,0.9,42.9-21.7,55.4c-23.2-8.4-31.8-31.5-47.6-47.2c-30.7-31.8-64.7-27.4-98.6-7.5c-32.6,19.2-48.4,47.8-42.1,86.8
			C173.7,281.2,182.1,298.6,167,313.7z"/>
		<path class="st17" d="M344.7,355c14.7-22.9,45.6-32,52.1-61.8c29.3-51.2-6.2-97.7-10.4-146.5c-0.3-24.3-25.5-32.9-33.1-52.7
			c51.2,16.4,74.8,55.7,86.9,104.6c5.3,67.3,0.5,129.9-74.9,159.3C358.4,356.9,351.6,355.9,344.7,355z"/>
		<path class="st18" d="M386.4,146.7c29.4,47,49,94.7,10.4,146.5c-4.8-27.8,10.3-58.1-10.5-83.9c-13.3-7-20.2-16.2-10.6-31
			c-14.2-31.6-44.1-41.3-73-52.5c1.8-22,14-12.1,25-8.6C348.8,124,362.5,145.4,386.4,146.7z"/>
		<path class="st19" d="M156.1,177.6c-6.6,10.6-13.3,21.2-19.9,31.7c-7.2,25-14.3,50-21.5,75.1c-3.7-0.6-7.4-1.1-11-1.7
			c0-17.6,0-35.1,0-52.7c8-28,11.9-58.3,42-73.6C154.6,160.8,150.4,171.6,156.1,177.6z"/>
		<path class="st20" d="M292.3,125.8c-42-3.3-81,4.9-115,31.2c-9.3-10.1-7.2-20.3-0.2-30.6C215.4,101.9,253.7,91,292.3,125.8z"/>
		<path class="st21" d="M177.1,126.5c0.1,10.2,0.2,20.4,0.2,30.6c-7.1,6.9-14.2,13.7-21.3,20.6c-8.5-4.6-9.8-12.8-10.4-21.2
			C152.9,143,162.8,132.4,177.1,126.5z"/>
		<path class="st22" d="M125.1,334.4c3.5,0.1,7,0.1,10.5,0.2c3.5,13.9,7,27.8,10.5,41.8C131.3,366.3,115.7,356.6,125.1,334.4z"/>
		<path class="st23" d="M292.4,62.9c11.5,0.4,23.7-1.2,31.4,10.6C306.6,89.7,297.9,81.1,292.4,62.9z"/>
		<path class="st24" d="M198.3,84.1c0-3.8,0-7.7-0.1-11.5c7.9-10.9,20.1-9,31.1-10.5C229.3,83.9,211.7,81,198.3,84.1z"/>
		<path class="st25" d="M302.7,376.3c9.2-22.6,24.2-21.2,41.6-10.2C333.3,381.1,317.1,375,302.7,376.3z"/>
		<path class="st26" d="M167,313.7c-14.5-57.7-24.1-115,41.6-149.3c40.5-21.1,81.8-29.9,114.3,15.7c-8.2,8.9-19.5,11.2-30.4,14.3
			c-4.4,0.8-8.9,0.7-13.3,0.1c-10-2.7-19.2-9-30.4-7.3c-10.7,1.9-20.1,6.4-28.2,13.5c-37,46.1-39.6,72.1-11.2,121.2
			c5.9,10.3,15.2,19.1,11.4,32.7C192.8,354.2,180.5,333.2,167,313.7z"/>
		<path class="st27" d="M375.6,178.3c3.5,10.3,7.1,20.7,10.6,31c-0.1,97.9-25.2,130.5-104.4,135.7c-8.9-6.1-20.2,0.2-29.1-5.7
			c-7.2-4.7-14.2-10.3-12.6-20c1.8-10.8,11.7-12.3,19.6-11.2c23.6,3.2,43.7-1.9,59.5-20.4c26.6-9.9,16.2-44.8,38.6-57.6
			C373.1,216,356.3,190.9,375.6,178.3z"/>
		<path class="st28" d="M220.8,354.8c-61-71.1-61.5-116.2-1.9-166.6c10.4-4,13.6,2.7,16.1,10.7c-8.2,36-22.1,71.6-5.9,109
			c0.4,16.6,26.5,27.4,11,47.6C233.6,355.2,227.2,355,220.8,354.8z"/>
		<path class="st29" d="M240,355.4c0.6-17.8-16-27-20.8-42c-4-28.4-15.7-57.4,7.1-83.5c21.7,14.2,16.3,50.5,46.8,57.6
			c11.1,2.4,22,0.2,33-1.2c7.2,0.1,13.6,1.7,17.3,8.7c-14.7,40.7-47.3,26.2-76.1,23c3.5,21.2,28,12,34.5,27.1
			C270.8,360,256,360.1,240,355.4z"/>
		<path class="st30" d="M323.4,295c-6.7-1-13.4-2-20.2-3c-4.5-21.9,25.2-37.3,11.5-60.9c-4.8-15.5-16.4-27.7-20.9-43.3
			c7-12.8,18.5-8.6,29.1-7.6c12.2,16.3,30.9,28,34.9,50C354.2,255.9,361,287.2,323.4,295z"/>
		<path class="st31" d="M293.8,187.8c22.3,5.2,27.6,22.9,31.2,42c-9.4,28.5-21.2,53.9-58.6,48.7c-22.5-11.7-9.4-39.7-25.1-54.7
			c-6.9-35.1,24.8-26,40.5-35.4C285.9,188.2,289.9,188,293.8,187.8z"/>
		<path class="st32" d="M281.9,188.4c-4,16.6-34.6,7.6-30.6,31.9c2.3,16.3-5.1,23-21,21.5c-23.5,20.8-5.5,48.1-11.1,71.7
			c-20.5-40.3-16.6-78.2,11-113.9c1.4-12.5,18.7-11.2,20.3-23.6C269.5,158.5,270.5,186.5,281.9,188.4z"/>
		<path class="st33" d="M250.4,175.9c7.5,20.1-13.5,15.8-20.3,23.6c-3.8-3.8-7.5-7.6-11.3-11.3C226.5,176.7,239.2,178.1,250.4,175.9
			z"/>
		<path class="st34" d="M263.1,271.6c35.8,8.6,37.3-33.7,61.8-41.8c20.7,30.5-7.2,44-21.7,62.2c-7.8,12.9-20.5,11-32.6,10.8
			C267.4,292.6,252.4,285.2,263.1,271.6z"/>
		<path class="st35" d="M263.1,271.6c2.5,10.4,5,20.8,7.5,31.2c-28.1-10.7-42.5-30.4-40.4-61c7-7.1,14-14.3,21-21.4
			C279.6,231.7,253.3,255.8,263.1,271.6z"/>
	</g>
</g>
</svg>
